<svg width="391" height="179" viewBox="0 0 391 179" fill="none" xmlns="http://www.w3.org/2000/svg">
<path d="M358.742 0.721771L390.199 20.5807V178.278H0.801178V20.5807L32.259 0.721771H358.742Z" fill="#590B07"/>
<path d="M1.60248 177.556V20.9574L32.5123 1.44354H358.488L389.398 20.9574V177.556H1.60248ZM0 179H391V20.2068L358.994 0H32.0059L0 20.2068V179Z" fill="#8E2421"/>
<path d="M353.685 15.1573L374.174 28.0914V163.843H16.8257V28.0914L37.3147 15.1573H353.685Z" fill="#651009"/>
<path d="M17.627 163.121V28.4682L37.568 15.879H353.432L373.373 28.4682V163.121H17.627ZM16.0245 164.565H374.975V27.7176L353.938 14.4355H37.0632L16.0261 27.7176L16.0245 164.565Z" fill="#8E2421"/>
</svg>
