<svg width="517" height="119" viewBox="0 0 517 119" fill="none" xmlns="http://www.w3.org/2000/svg">
<rect x="1" y="1" width="515" height="117" rx="12" fill="url(#paint0_linear_79_3201)" stroke="url(#paint1_linear_79_3201)" stroke-width="2"/>
<path d="M112.653 69.68C107.896 70.1067 103.949 70.32 100.813 70.32C98.7225 70.32 97.1865 69.8293 96.2051 68.848C95.2238 67.8667 94.7331 66.3307 94.7331 64.24V54C94.7331 51.76 95.2345 50.1387 96.2371 49.136C97.2611 48.112 98.8931 47.6 101.133 47.6H112.653V52.08H102.413C101.133 52.08 100.493 52.72 100.493 54V64.24C100.493 64.7307 100.632 65.1253 100.909 65.424C101.208 65.7013 101.581 65.84 102.029 65.84C102.477 65.84 102.968 65.84 103.501 65.84C104.034 65.8187 104.589 65.7973 105.165 65.776C105.741 65.7547 106.317 65.7333 106.893 65.712C107.49 65.6907 108.248 65.648 109.165 65.584C110.104 65.52 111.266 65.4453 112.653 65.36V69.68ZM132.177 65.2C132.177 66.8 131.718 68.0587 130.801 68.976C129.905 69.872 128.657 70.32 127.057 70.32H119.697C118.097 70.32 116.838 69.872 115.921 68.976C115.025 68.0587 114.577 66.8 114.577 65.2V57.84C114.577 56.24 115.025 54.992 115.921 54.096C116.838 53.1787 118.097 52.72 119.697 52.72H127.057C128.657 52.72 129.905 53.1787 130.801 54.096C131.718 54.992 132.177 56.24 132.177 57.84V65.2ZM126.577 58.32C126.577 57.4667 126.15 57.04 125.297 57.04H121.457C120.604 57.04 120.177 57.4667 120.177 58.32V64.72C120.177 65.5733 120.604 66 121.457 66H125.297C126.15 66 126.577 65.5733 126.577 64.72V58.32ZM144.493 57.36C143.362 57.36 142.082 57.5733 140.653 58V70H135.053V53.04H140.013L140.333 54.64C141.336 53.9787 142.36 53.4987 143.405 53.2C144.472 52.88 145.368 52.72 146.093 52.72H147.533C148.984 52.72 150.146 53.1573 151.021 54.032C151.896 54.9067 152.333 56.0693 152.333 57.52V70H146.733V58.48C146.733 58.16 146.626 57.8933 146.413 57.68C146.2 57.4667 145.933 57.36 145.613 57.36H144.493ZM164.649 57.36C163.519 57.36 162.239 57.5733 160.809 58V70H155.209V53.04H160.169L160.489 54.64C161.492 53.9787 162.516 53.4987 163.561 53.2C164.628 52.88 165.524 52.72 166.249 52.72H167.689C169.14 52.72 170.303 53.1573 171.177 54.032C172.052 54.9067 172.489 56.0693 172.489 57.52V70H166.889V58.48C166.889 58.16 166.783 57.8933 166.569 57.68C166.356 57.4667 166.089 57.36 165.769 57.36H164.649ZM181.926 56.72C181.072 56.72 180.646 57.1467 180.646 58V59.76H186.086V58C186.086 57.1467 185.659 56.72 184.806 56.72H181.926ZM191.046 69.68C186.928 70.1067 183.195 70.32 179.846 70.32C178.395 70.32 177.232 69.8827 176.358 69.008C175.483 68.1333 175.046 66.9707 175.046 65.52V57.84C175.046 56.24 175.494 54.992 176.39 54.096C177.307 53.1787 178.566 52.72 180.166 52.72H186.566C188.166 52.72 189.414 53.1787 190.31 54.096C191.227 54.992 191.686 56.24 191.686 57.84V63.76H180.646V65.04C180.646 65.36 180.752 65.6267 180.966 65.84C181.179 66.0533 181.446 66.16 181.766 66.16C183.878 66.16 186.971 66 191.046 65.68V69.68ZM209.593 69.68C205.604 70.1067 202.084 70.32 199.033 70.32C197.582 70.32 196.42 69.8827 195.545 69.008C194.67 68.1333 194.233 66.9707 194.233 65.52V58.16C194.233 56.56 194.681 55.312 195.577 54.416C196.494 53.4987 197.753 53.04 199.353 53.04H209.593V57.36H201.113C200.26 57.36 199.833 57.7867 199.833 58.64V64.88C199.833 65.2 199.94 65.4667 200.153 65.68C200.366 65.8933 200.633 66 200.953 66C202.873 66 205.753 65.84 209.593 65.52V69.68ZM223.987 70C221.918 70.2133 219.891 70.32 217.907 70.32C216.456 70.32 215.294 69.8827 214.419 69.008C213.544 68.1333 213.107 66.9707 213.107 65.52V57.36H211.187V53.04H213.107L213.747 49.2H218.707V53.04H222.707V57.36H218.707V64.72C218.707 65.04 218.814 65.3067 219.027 65.52C219.24 65.7333 219.507 65.84 219.827 65.84H223.987V70ZM240.314 75.76C239.184 75.76 237.797 75.6533 236.154 75.44V71.28H239.034C239.845 71.28 240.368 71.056 240.602 70.608C240.858 70.16 240.816 69.5307 240.474 68.72L233.914 53.04H239.834L243.834 63.92L247.194 53.04H253.114L246.714 70.64C246.096 72.3253 245.296 73.5947 244.314 74.448C243.333 75.3227 242 75.76 240.314 75.76ZM271.052 65.2C271.052 66.8 270.593 68.0587 269.676 68.976C268.78 69.872 267.532 70.32 265.932 70.32H258.572C256.972 70.32 255.713 69.872 254.796 68.976C253.9 68.0587 253.452 66.8 253.452 65.2V57.84C253.452 56.24 253.9 54.992 254.796 54.096C255.713 53.1787 256.972 52.72 258.572 52.72H265.932C267.532 52.72 268.78 53.1787 269.676 54.096C270.593 54.992 271.052 56.24 271.052 57.84V65.2ZM265.452 58.32C265.452 57.4667 265.025 57.04 264.172 57.04H260.332C259.479 57.04 259.052 57.4667 259.052 58.32V64.72C259.052 65.5733 259.479 66 260.332 66H264.172C265.025 66 265.452 65.5733 265.452 64.72V58.32ZM281.768 65.68C282.899 65.68 284.179 65.4667 285.608 65.04V53.04H291.208V70H286.248L285.928 68.4C284.925 69.0613 283.891 69.552 282.824 69.872C281.779 70.1707 280.893 70.32 280.168 70.32H278.728C277.277 70.32 276.115 69.8827 275.24 69.008C274.365 68.1333 273.928 66.9707 273.928 65.52V53.04H279.528V64.56C279.528 64.88 279.635 65.1467 279.848 65.36C280.061 65.5733 280.328 65.68 280.648 65.68H281.768ZM304.157 57.68C302.813 57.68 301.426 58 299.997 58.64V70H294.397V53.04H299.357L299.677 55.12C301.512 53.52 303.432 52.72 305.437 52.72H306.877V57.68H304.157ZM335.349 47.6L339.189 62L342.549 47.6H348.789L342.709 70H336.629L332.789 56.08L328.949 70H322.869L316.789 47.6H323.029L326.389 62L330.229 47.6H335.349ZM356.804 65.84C357.935 65.84 359.215 65.6267 360.644 65.2V63.28H356.004C355.684 63.28 355.418 63.3867 355.204 63.6C354.991 63.8133 354.884 64.08 354.884 64.4V64.72C354.884 65.04 354.991 65.3067 355.204 65.52C355.418 65.7333 355.684 65.84 356.004 65.84H356.804ZM350.884 53.36C354.788 52.9333 358.308 52.72 361.444 52.72C362.895 52.72 364.058 53.1573 364.932 54.032C365.807 54.9067 366.244 56.0693 366.244 57.52V70H361.284L360.964 68.4C359.962 69.0613 358.927 69.552 357.86 69.872C356.815 70.1707 355.93 70.32 355.204 70.32H354.084C352.634 70.32 351.471 69.8827 350.596 69.008C349.722 68.1333 349.284 66.9707 349.284 65.52V64.08C349.284 62.6293 349.722 61.4667 350.596 60.592C351.471 59.7173 352.634 59.28 354.084 59.28H360.644V58C360.644 57.68 360.538 57.4133 360.324 57.2C360.111 56.9867 359.844 56.88 359.524 56.88C358.138 56.88 356.602 56.944 354.916 57.072C353.252 57.2 351.908 57.296 350.884 57.36V53.36ZM377.756 70C376.326 70.2133 374.961 70.32 373.66 70.32C372.38 70.32 371.302 69.8827 370.428 69.008C369.553 68.1333 369.116 66.9707 369.116 65.52V47.6H374.716V64.72C374.716 65.04 374.822 65.3067 375.036 65.52C375.249 65.7333 375.516 65.84 375.836 65.84H377.756V70ZM388.631 70C387.201 70.2133 385.836 70.32 384.535 70.32C383.255 70.32 382.177 69.8827 381.303 69.008C380.428 68.1333 379.991 66.9707 379.991 65.52V47.6H385.591V64.72C385.591 65.04 385.697 65.3067 385.911 65.52C386.124 65.7333 386.391 65.84 386.711 65.84H388.631V70ZM397.426 56.72C396.572 56.72 396.146 57.1467 396.146 58V59.76H401.586V58C401.586 57.1467 401.159 56.72 400.306 56.72H397.426ZM406.546 69.68C402.428 70.1067 398.695 70.32 395.346 70.32C393.895 70.32 392.732 69.8827 391.858 69.008C390.983 68.1333 390.546 66.9707 390.546 65.52V57.84C390.546 56.24 390.994 54.992 391.89 54.096C392.807 53.1787 394.066 52.72 395.666 52.72H402.066C403.666 52.72 404.914 53.1787 405.81 54.096C406.727 54.992 407.186 56.24 407.186 57.84V63.76H396.146V65.04C396.146 65.36 396.252 65.6267 396.466 65.84C396.679 66.0533 396.946 66.16 397.266 66.16C399.378 66.16 402.471 66 406.546 65.68V69.68ZM421.893 70C419.824 70.2133 417.797 70.32 415.813 70.32C414.362 70.32 413.2 69.8827 412.325 69.008C411.45 68.1333 411.013 66.9707 411.013 65.52V57.36H409.093V53.04H411.013L411.653 49.2H416.613V53.04H420.613V57.36H416.613V64.72C416.613 65.04 416.72 65.3067 416.933 65.52C417.146 65.7333 417.413 65.84 417.733 65.84H421.893V70Z" fill="white"/>
<defs>
<linearGradient id="paint0_linear_79_3201" x1="258.5" y1="0" x2="258.5" y2="119" gradientUnits="userSpaceOnUse">
<stop stop-color="#323232"/>
<stop offset="1"/>
</linearGradient>
<linearGradient id="paint1_linear_79_3201" x1="258.5" y1="0" x2="258.5" y2="119" gradientUnits="userSpaceOnUse">
<stop stop-color="#464645"/>
<stop offset="0.453125" stop-color="#868585"/>
<stop offset="0.515625" stop-color="#070707"/>
<stop offset="1" stop-color="#3E3F3F"/>
</linearGradient>
</defs>
</svg>
