<svg width="373" height="64" viewBox="0 0 373 64" fill="none" xmlns="http://www.w3.org/2000/svg">
<path d="M121.713 49.8131H113.698V29.4271L104.633 44.3051H103.731L94.661 29.4271V49.8151H86.65V14.7461H94.661L104.184 30.3271L113.702 14.7461H121.717L121.713 49.8131Z" fill="white"/>
<path d="M153.761 42.0991V49.8131H131.721V14.7461H153.511V22.4611H139.736V28.2741H152.257V35.8881H139.736V42.0991H153.761Z" fill="white"/>
<path d="M185.814 22.465H176.796V49.816H168.782V22.465H159.766V14.75H185.814V22.465Z" fill="white"/>
<path d="M211.352 44.3051H198.328L196.575 49.8141H187.807L199.732 14.7471H209.95L221.873 49.8141H213.104L211.352 44.3051ZM208.946 36.7921L204.834 23.9171L200.728 36.7921H208.946Z" fill="white"/>
<path d="M263.944 49.8131H255.928V29.4271L246.859 44.3051H245.957L236.892 29.4271V49.8151H228.876V14.7461H236.892L246.409 30.3271L255.928 14.7461H263.944V49.8131Z" fill="white"/>
<path d="M294.487 44.3051H281.462L279.706 49.8141H270.941L282.864 14.7471H293.081L305.008 49.8141H296.239L294.487 44.3051ZM292.081 36.7921L287.975 23.9171L283.863 36.7921H292.081Z" fill="white"/>
<path d="M309.504 41.8491L316.419 37.8441C317.519 40.9211 320.52 42.9021 323.782 42.7041C327.59 42.7041 328.541 41.1981 328.541 39.8461C328.541 37.6931 326.538 36.8401 321.279 35.3871C316.071 33.9381 310.961 31.4311 310.961 24.7171C310.961 17.9561 316.668 14.0471 322.732 14.0471C328.212 13.8591 333.269 16.9811 335.557 21.9651L328.792 25.9211C327.59 23.4181 325.938 21.8681 322.732 21.8681C320.225 21.8681 318.973 23.1211 318.973 24.5281C318.973 26.1331 319.824 27.2341 325.286 28.8891C330.596 30.4891 336.559 32.3431 336.559 39.7581C336.559 46.5191 331.148 50.5241 323.532 50.5241C316.169 50.5241 311.461 47.0171 309.508 41.8551" fill="white"/>
<path d="M363.546 49.8131L352.326 33.5841V49.8131H344.311V14.7461H352.326V29.9761L363.047 14.7461H372.159L360.338 31.8311L372.662 49.8131H363.546Z" fill="white"/>
<path d="M8.711 0L23.454 9.343L31.128 20.743L8.711 0Z" fill="#E2761B"/>
<path d="M39.434 21.012L39.295 10.693L60.308 5.83301L39.434 21.012Z" fill="#E2761B"/>
<path d="M31.128 20.7429L35.992 35.6309L37.88 40.3489L45.16 51.4019L44.217 52.2769L35.388 42.6389L32.688 38.4619L27.903 40.9539L28.244 46.8889L20.895 35.1579L20.198 28.5509L31.128 20.7429Z" fill="#E4761B"/>
<path d="M28.241 46.8889L23.593 56.9969L19.142 47.4259L28.241 46.8889Z" fill="#D86E1F"/>
<path d="M39.434 21.012L42.663 35.424L44.149 42.238L50.752 50.863L52.708 51.806L45.227 41.899V38.056L48.8 39.809L52.371 34.283L45.436 28.322L39.434 21.012Z" fill="#E4761B"/>
<path d="M23.454 9.34302L39.295 10.693L39.434 21.012L31.128 20.743L23.454 9.34302Z" fill="#F6851B"/>
<path d="M20.198 28.551L20.895 35.158L28.241 46.889L19.142 47.426L0 48.167L6.678 32.891L20.198 28.551Z" fill="#F78C24"/>
<path d="M45.436 28.322L52.371 34.283L48.8 39.809L49.067 45.065L57.697 43.585L55.755 31.912L45.436 28.322Z" fill="#F6851B"/>
<path d="M23.59 56.9969L44.217 52.2769L35.388 42.6389L28.241 46.8889L23.59 56.9969Z" fill="#F78C24"/>
<path d="M45.227 41.8989L49.067 45.0649L52.708 51.8059L45.227 41.8989Z" fill="#F78C24"/>
<path d="M59.045 24.089L57.853 23.14L60.761 14.29L60.308 5.83301L39.434 21.012L45.436 28.322L55.758 31.912L58.139 28.926L57.136 28.156L58.696 26.667L57.336 25.538L57.356 25.386L59.045 24.089Z" fill="#763D16"/>
<path d="M8.71103 0L2.76003 10.221L3.43903 21.813L2.21503 22.958L4.21503 24.61L2.88203 26.079L4.84403 28.069L3.78303 29.184L6.68203 32.888L20.202 28.548L31.128 20.739L8.71103 0Z" fill="#763D16"/>
<path d="M50.752 50.863L45.16 51.4L44.214 52.277L43.271 57.67L52.103 56.321L52.708 51.806L50.752 50.863Z" fill="#161616"/>
<path d="M0 48.167L4.11 63.332L23.59 56.997L19.142 47.426L0 48.167Z" fill="#E4761B"/>
<path d="M57.697 43.585L54.055 56.256L52.103 56.321L52.708 51.806L49.067 45.065L57.697 43.585Z" fill="#E4761B"/>
<path d="M44.217 52.2781L43.271 57.6701L52.103 56.3211L50.013 61.2441L42.126 62.5231L23.59 56.9981L44.217 52.2781Z" fill="#DBC8BA"/>
<path d="M31.128 20.7429L39.434 21.0119L42.663 35.4239L44.149 42.2379L50.752 50.8629L45.16 51.4019L37.88 40.3489L35.992 35.6309L31.128 20.7429Z" fill="#F6851B"/>
<path d="M35.388 42.639L27.903 40.957L28.241 46.889L35.388 42.639Z" fill="#D86E1F"/>
<path d="M48.8 39.8091L45.227 41.8991L49.067 45.0651L48.8 39.8091Z" fill="#F6851B"/>
<path fill-rule="evenodd" clip-rule="evenodd" d="M35.388 42.639L35.992 35.631L20.895 35.158L27.903 40.957L32.688 38.462L35.388 42.639Z" fill="#CD6116"/>
<path fill-rule="evenodd" clip-rule="evenodd" d="M49.067 45.065L52.371 34.283L48.8 39.809L49.067 45.065Z" fill="#E4751F"/>
<path fill-rule="evenodd" clip-rule="evenodd" d="M42.663 35.428L52.371 34.283L48.8 39.809L45.227 38.056V41.899L44.149 42.238L42.663 35.428Z" fill="#CD6116"/>
<path fill-rule="evenodd" clip-rule="evenodd" d="M43.271 57.67L40.316 59.891L23.59 56.997L42.126 62.523L50.013 61.244L52.103 56.321L43.271 57.67Z" fill="#C0AD9E"/>
<path fill-rule="evenodd" clip-rule="evenodd" d="M45.227 41.8989L48.8 39.8089L45.227 38.0559V41.8989Z" fill="#233447"/>
<path fill-rule="evenodd" clip-rule="evenodd" d="M32.678 38.438L35.388 42.639L27.903 40.954L32.678 38.438Z" fill="#233447"/>
</svg>
