<svg width="140" height="191" viewBox="0 0 140 191" fill="none" xmlns="http://www.w3.org/2000/svg">
<path d="M45.2475 119.403H48.6395L59.1995 135.691H59.2635V119.403H62.8155V141.803H59.4235L48.8635 125.547H48.7995V141.803H45.2475V119.403ZM66.83 138.603V129.067L69.998 125.867H78.83L82.03 129.067V138.603L78.83 141.803H69.998L66.83 138.603ZM77.134 138.763L78.414 137.483V130.187L77.134 128.907H71.726L70.446 130.187V137.483L71.726 138.763H77.134ZM86.84 138.635V128.939H83.96V125.867H86.904V120.683H90.456V125.867H95.352V128.939H90.456V137.483L91.704 138.731H95.352V141.803H90.008L86.84 138.635ZM10.2019 157.403H13.9459L16.9539 174.267H17.0499L21.8179 157.403H24.7939L29.4019 174.267H29.5299L32.5059 157.403H36.2499L31.6419 179.803H28.0579L23.3539 163.003H23.2579L18.3939 179.803H14.8099L10.2019 157.403ZM38.5056 160.443V158.587L39.8176 157.307H41.7696L43.0816 158.587V160.443L41.7696 161.723H39.8176L38.5056 160.443ZM38.9856 163.867H42.6016V179.803H38.9856V163.867ZM47.0719 163.867H50.4319V166.779L53.3439 163.867H58.3999L61.7599 167.227V179.803H58.1439V168.219L56.8959 166.971H54.0159L50.6879 170.331V179.803H47.0719V163.867ZM65.7594 163.867H69.1194V166.779L72.0314 163.867H77.0874L80.4474 167.227V179.803H76.8314V168.219L75.5834 166.971H72.7034L69.3754 170.331V179.803H65.7594V163.867ZM84.1269 176.635V167.067L87.2949 163.867H95.9669L99.1989 167.067V173.019H87.7429V175.579L88.9589 176.795H94.4309L95.5829 175.611V174.651H99.1669V176.699L96.0629 179.803H87.2629L84.1269 176.635ZM95.5829 170.363V168.155L94.3349 166.875H88.9909L87.7429 168.155V170.363H95.5829ZM102.884 163.867H106.244V166.587L108.9 163.867H113.316V166.971H109.7L106.5 170.235V179.803H102.884V163.867ZM114.459 176.827V174.875H118.011V175.899L118.907 176.827H124.347L125.243 175.899V174.171L124.315 173.243H117.435L114.587 170.363V166.779L117.499 163.867H125.531L128.475 166.843V168.795H124.923V167.771L124.027 166.843H119.035L118.139 167.771V169.371L119.067 170.299H125.915L128.795 173.211V176.891L125.883 179.803H117.403L114.459 176.827Z" fill="white"/>
<path d="M108.49 37.6907C112.154 36.3696 114.115 33.903 114.187 30.136C114.218 28.4125 113.589 26.8438 112.505 25.4711C111.421 24.0882 109.976 23.2832 108.201 22.7775C111.132 20.4863 112.185 17.6585 110.647 14.3146C109.078 10.8882 106.003 10.2586 102.556 10.6095C102.525 10.527 102.484 10.4444 102.453 10.3618C102.659 10.2277 102.876 10.1141 103.062 9.95933C104.878 8.43189 105.497 5.98592 104.672 3.64315C103.908 1.49648 101.823 0 99.501 0C90.2744 0 81.0375 0 71.8109 0.0206411C68.8076 0.0206411 65.8869 0.608913 63.0281 1.49648C59.4985 2.59046 55.9689 3.67412 52.4496 4.8197C49.9004 5.64534 48.9302 7.59593 48.9199 10.1245C48.9199 18.6389 48.9199 27.1637 48.9199 35.6781C48.9199 37.3604 48.9922 39.0426 49.0231 40.7249C49.0747 43.7798 50.3958 46.2567 52.2638 48.6201C56.1649 53.5533 59.932 58.6001 63.7299 63.6159C65.7527 66.2889 67.1357 69.2509 67.8375 72.5741C68.4877 75.6393 69.2308 78.6942 70.6447 81.5324C71.6767 83.6068 73.0391 85.3097 75.485 85.836C78.3129 86.4449 80.604 85.4335 81.9354 82.8534C83.081 80.6138 83.5144 78.1885 83.6486 75.6909C83.8756 71.6659 82.9158 67.8267 81.6051 64.0906C80.5008 60.9738 79.1901 57.9189 77.9413 54.8537C77.2189 53.0786 77.6627 52.1188 79.5307 51.7266C80.377 51.5512 81.2439 51.4686 82.1108 51.4686C89.7893 51.4479 97.4575 51.4686 105.136 51.4583C110.296 51.4583 113.743 46.4941 111.978 41.6537C111.452 40.2192 110.492 39.1149 109.264 38.2273C109.058 38.0828 108.851 37.9487 108.49 37.701V37.6907Z" fill="#E83698"/>
<path d="M41.7779 0H25.8637C24.1195 0 22.7056 1.41392 22.7056 3.15809V48.3002C22.7056 50.0443 24.1195 51.4583 25.8637 51.4583H41.7779C43.5221 51.4583 44.936 50.0443 44.936 48.3002V3.15809C44.936 1.41392 43.5221 0 41.7779 0Z" fill="#E83698"/>
</svg>
