<svg width="400" height="399" viewBox="0 0 400 399" fill="none" xmlns="http://www.w3.org/2000/svg">
<path d="M200.062 398.394C310.153 398.394 399.4 309.37 399.4 199.554C399.4 89.7385 310.153 0.715065 200.062 0.715065C89.9707 0.715065 0.724121 89.7385 0.724121 199.554C0.724121 309.37 89.9707 398.394 200.062 398.394Z" fill="url(#paint0_linear_209_731)"/>
<path d="M200 1.43722C253.037 1.43722 302.899 22.0397 340.402 59.449C377.905 96.8583 398.559 146.596 398.559 199.5C398.559 252.404 377.905 302.142 340.402 339.552C302.899 376.962 253.037 397.564 200 397.564C146.963 397.564 97.1011 376.962 59.598 339.552C22.095 302.143 1.44082 252.405 1.44082 199.5C1.44082 146.595 22.095 96.8583 59.598 59.449C97.1011 22.0397 146.963 1.43722 200 1.43722ZM200 0C89.5425 0 0 89.3187 0 199.5C0 309.681 89.5425 399 200 399C310.457 399 400 309.681 400 199.5C400 89.3187 310.457 0 200 0Z" fill="#3D1010"/>
<path d="M199.904 371.088C294.999 371.088 372.089 294.191 372.089 199.333C372.089 104.476 294.999 27.5783 199.904 27.5783C104.808 27.5783 27.7184 104.476 27.7184 199.333C27.7184 294.191 104.808 371.088 199.904 371.088Z" stroke="#C91B1B" stroke-width="19.8676" stroke-miterlimit="10"/>
<defs>
<linearGradient id="paint0_linear_209_731" x1="231.991" y1="3.28293" x2="168.438" y2="395.876" gradientUnits="userSpaceOnUse">
<stop/>
<stop offset="0.307" stop-color="#0C0000"/>
<stop offset="0.515" stop-color="#180000"/>
<stop offset="0.962" stop-color="#310000"/>
</linearGradient>
</defs>
</svg>
