<svg width="46" height="46" viewBox="0 0 46 46" fill="none" xmlns="http://www.w3.org/2000/svg">
<rect x="0.5" y="0.5" width="45" height="45" rx="9.5" fill="url(#paint0_linear_3_1160)" stroke="#C90100"/>
<path d="M31.6666 6.11594C31.4114 6.11594 31.2044 6.32295 31.2044 6.57819C31.2044 6.67376 31.2334 6.76243 31.2832 6.83613L29.0699 8.32475C28.4012 8.77442 27.4983 8.31815 27.4635 7.51318L27.3853 5.69413C27.6313 5.68364 27.8278 5.48232 27.8278 5.23367C27.8278 4.97843 27.6208 4.77142 27.3655 4.77142C27.1103 4.77142 26.9033 4.97843 26.9033 5.23367C26.9033 5.38256 26.9749 5.51378 27.0842 5.59826L25.7981 7.26423C25.3041 7.90413 24.2996 7.75315 24.0159 6.99641L23.2268 4.89395C23.4021 4.82804 23.5273 4.66058 23.5273 4.46225C23.5273 4.20671 23.3203 4 23.065 4C22.8098 4 22.6028 4.20701 22.6028 4.46225C22.6028 4.66028 22.728 4.82804 22.9033 4.89395L22.1145 6.9967C21.8305 7.75345 20.8263 7.90443 20.332 7.26483L19.045 5.59826C19.1543 5.51378 19.2259 5.38256 19.2259 5.23367C19.2259 4.97843 19.0189 4.77142 18.7634 4.77142C18.5078 4.77142 18.3011 4.97843 18.3011 5.23367C18.3011 5.48232 18.4976 5.68334 18.7436 5.69413L18.6651 7.51288C18.6303 8.31786 17.7274 8.77412 17.0587 8.32445L14.8292 6.82505C14.8883 6.74745 14.9245 6.65159 14.9245 6.54673C14.9245 6.29149 14.7175 6.08448 14.4623 6.08448C14.207 6.08448 14 6.29149 14 6.54673C14 6.80198 14.207 7.00899 14.4623 7.00899C14.524 7.00899 14.583 6.99641 14.6369 6.97424L17.2906 12.9988C17.9665 12.4521 20.2951 12.0482 23.0644 12.0482C25.8338 12.0482 28.1636 12.4524 28.8386 13L31.4806 7.0012C31.5375 7.02636 31.6004 7.04104 31.6666 7.04104C31.9222 7.04104 32.1289 6.83403 32.1289 6.57879C32.1289 6.32355 31.9219 6.11654 31.6666 6.11654V6.11594ZM19.6465 11.0365C19.343 11.0365 19.0971 10.7906 19.0971 10.4871C19.0971 10.1836 19.343 9.93769 19.6465 9.93769C19.95 9.93769 20.196 10.1836 20.196 10.4871C20.196 10.7906 19.95 11.0365 19.6465 11.0365ZM23.0644 11.0365C22.589 11.0365 22.2035 10.651 22.2035 10.1756C22.2035 9.70012 22.589 9.31456 23.0644 9.31456C23.5399 9.31456 23.9254 9.70012 23.9254 10.1756C23.9254 10.651 23.5399 11.0365 23.0644 11.0365ZM26.4824 11.0365C26.1789 11.0365 25.9329 10.7906 25.9329 10.4871C25.9329 10.1836 26.1789 9.93769 26.4824 9.93769C26.7859 9.93769 27.0318 10.1836 27.0318 10.4871C27.0318 10.7906 26.7859 11.0365 26.4824 11.0365Z" fill="url(#paint1_linear_3_1160)"/>
<path d="M15.6599 17.15H13.5699V16H19.1099V17.15H17.0199V23H15.6599V17.15ZM19.6633 21.85V17.15L20.8133 16H24.4133L25.5633 17.15V21.85L24.4133 23H20.8133L19.6633 21.85ZM23.6933 21.84L24.2033 21.33V17.67L23.6933 17.16H21.5333L21.0233 17.67V21.33L21.5333 21.84H23.6933ZM26.7652 16H31.1552L32.2252 17.08V19.53L31.1452 20.62H28.1252V23H26.7652V16ZM30.5352 19.48L30.8852 19.13V17.49L30.5352 17.14H28.1252V19.48H30.5352Z" fill="#C90100"/>
<path d="M17.3604 29.01L14.6424 30.414V28.164L17.8464 26.4H19.8084V39H17.3604V29.01ZM22.0554 36.912V28.488L24.1434 26.4H29.7234L31.8114 28.488V36.912L29.7234 39H24.1434L22.0554 36.912ZM28.5714 36.912L29.3634 36.12V29.28L28.5714 28.488H25.2954L24.5034 29.28V36.12L25.2954 36.912H28.5714Z" fill="#C90100"/>
<defs>
<linearGradient id="paint0_linear_3_1160" x1="23" y1="0" x2="23" y2="46" gradientUnits="userSpaceOnUse">
<stop/>
<stop offset="0.307" stop-color="#0C0000"/>
<stop offset="0.515" stop-color="#180000"/>
<stop offset="0.962" stop-color="#310000"/>
</linearGradient>
<linearGradient id="paint1_linear_3_1160" x1="14" y1="8.5" x2="32.1292" y2="8.5" gradientUnits="userSpaceOnUse">
<stop stop-color="#985B2A"/>
<stop offset="0.262" stop-color="#F5DC85"/>
<stop offset="0.373" stop-color="#FDF7B2"/>
<stop offset="0.478" stop-color="#F5DC85"/>
<stop offset="0.518" stop-color="#D5B669"/>
<stop offset="0.563" stop-color="#B79250"/>
<stop offset="0.605" stop-color="#A1783E"/>
<stop offset="0.643" stop-color="#946932"/>
<stop offset="0.674" stop-color="#90642F"/>
<stop offset="0.714" stop-color="#956A33"/>
<stop offset="0.768" stop-color="#A47B3E"/>
<stop offset="0.83" stop-color="#BE9751"/>
<stop offset="0.897" stop-color="#E0BF6A"/>
<stop offset="0.923" stop-color="#F0D076"/>
<stop offset="0.949" stop-color="#F4DC84"/>
<stop offset="1" stop-color="#FCF19C"/>
</linearGradient>
</defs>
</svg>
