<svg width="64" height="64" viewBox="0 0 64 64" fill="none" xmlns="http://www.w3.org/2000/svg">
<g clip-path="url(#clip0_181_1199)">
<path d="M37.9793 31.7504C35.9656 31.7504 34.3331 33.383 34.3331 35.3967C34.3331 37.4103 35.9656 39.0429 37.9793 39.0429H44.75V44.2509H19.75V26.5416H44.75V31.7496H37.9793V31.7504ZM39.0211 36.9584H37.9793C37.1162 36.9584 36.4167 36.2589 36.4167 35.3958C36.4167 34.5326 37.1162 33.8331 37.9793 33.8331H39.0211C39.8842 33.8331 40.5838 34.5326 40.5838 35.3958C40.5838 36.2589 39.8842 36.9584 39.0211 36.9584ZM36.4167 19.25L40.5829 24.458H28.0833L36.4167 19.25Z" fill="#C90100"/>
</g>
<rect x="1" y="0.5" width="62.5" height="62.5" stroke="#C90100"/>
<defs>
<clipPath id="clip0_181_1199">
<rect width="25" height="25" fill="white" transform="translate(19.75 19.25)"/>
</clipPath>
</defs>
</svg>
