<svg width="140" height="180" viewBox="0 0 140 180" fill="none" xmlns="http://www.w3.org/2000/svg">
<g clip-path="url(#clip0_8_7084)">
<path d="M115.054 68.8794C118.914 70.2623 120.978 72.8631 121.05 76.8262C121.081 78.6426 120.42 80.2836 119.285 81.7285C118.15 83.1836 116.633 84.0299 114.754 84.5666C117.84 86.9816 118.945 89.9539 117.335 93.4732C115.683 97.0751 112.443 97.7356 108.82 97.3744C108.779 97.4673 108.748 97.5499 108.707 97.6427C108.923 97.7872 109.15 97.9111 109.346 98.0659C111.266 99.6759 111.916 102.256 111.039 104.712C110.234 106.973 108.046 108.531 105.6 108.531C95.8885 108.531 86.1665 108.531 76.4549 108.51C73.2865 108.51 70.2213 107.891 67.2077 106.952C63.4923 105.796 59.7769 104.661 56.0821 103.453C53.3988 102.586 52.377 100.532 52.3667 97.8698C52.3667 88.9012 52.3667 79.943 52.3667 70.9744C52.3667 69.2096 52.4493 67.4345 52.4802 65.6697C52.5421 62.4497 53.9251 59.8489 55.8963 57.3616C60.0039 52.1704 63.967 46.8656 67.9611 41.5815C70.0871 38.764 71.5423 35.6472 72.2854 32.1588C72.9768 28.9388 73.7509 25.7085 75.237 22.7362C76.331 20.5585 77.7553 18.7628 80.3251 18.2055C83.2974 17.5656 85.7227 18.6286 87.116 21.3429C88.3235 23.696 88.7776 26.2555 88.9221 28.8769C89.1595 33.1083 88.1584 37.154 86.7651 41.0861C85.6092 44.3681 84.2159 47.5777 82.9052 50.8081C82.1415 52.6761 82.6059 53.6875 84.5771 54.1003C85.4647 54.2861 86.3832 54.379 87.2915 54.379C95.3724 54.3996 103.443 54.379 111.524 54.3996C116.953 54.3996 120.586 59.6218 118.728 64.7202C118.181 66.227 117.159 67.3932 115.869 68.322C115.652 68.4769 115.436 68.6213 115.054 68.8794Z" fill="#79FBCB"/>
<path d="M44.843 54.3996H28.0927C26.2574 54.3996 24.7695 55.8875 24.7695 57.7228V105.228C24.7695 107.064 26.2574 108.552 28.0927 108.552H44.843C46.6784 108.552 48.1662 107.064 48.1662 105.228V57.7228C48.1662 55.8875 46.6784 54.3996 44.843 54.3996Z" fill="#79FBCB"/>
<path d="M63.2549 21.7351H56.1131C54.1466 21.7351 52.5525 23.3269 52.5525 25.2905C52.5525 27.2541 54.1466 28.8459 56.1131 28.8459H63.2549C65.2214 28.8459 66.8155 27.2541 66.8155 25.2905C66.8155 23.3269 65.2214 21.7351 63.2549 21.7351Z" fill="#79FBCB"/>
<path d="M107.128 21.7351H99.9858C98.0193 21.7351 96.4252 23.3269 96.4252 25.2905C96.4252 27.2541 98.0193 28.8459 99.9858 28.8459H107.128C109.094 28.8459 110.688 27.2541 110.688 25.2905C110.688 23.3269 109.094 21.7351 107.128 21.7351Z" fill="#79FBCB"/>
<path d="M89.0573 2.13289L86.2049 8.68038C85.4195 10.4832 86.2422 12.5804 88.0424 13.3647C89.8426 14.1489 91.9386 13.3232 92.724 11.5204L95.5764 4.97289C96.3618 3.17008 95.5391 1.07285 93.7389 0.288609C91.9387 -0.495636 89.8426 0.330074 89.0573 2.13289Z" fill="#79FBCB"/>
<path d="M65.4566 6.54045L69.6282 12.3373C70.7769 13.9334 73.0001 14.2975 74.5939 13.1506C76.1877 12.0036 76.5486 9.77991 75.4 8.18378L71.2284 2.38694C70.0797 0.790809 67.8565 0.42669 66.2627 1.57365C64.6689 2.72061 64.308 4.94432 65.4566 6.54045Z" fill="#79FBCB"/>
</g>
<path d="M10.2019 147.959H13.9459L16.9539 164.823H17.0499L21.8179 147.959H24.7939L29.4019 164.823H29.5299L32.5059 147.959H36.2499L31.6419 170.359H28.0579L23.3539 153.559H23.2579L18.3939 170.359H14.8099L10.2019 147.959ZM38.5056 150.999V149.143L39.8176 147.863H41.7696L43.0816 149.143V150.999L41.7696 152.279H39.8176L38.5056 150.999ZM38.9856 154.423H42.6016V170.359H38.9856V154.423ZM47.0719 154.423H50.4319V157.335L53.3439 154.423H58.3999L61.7599 157.783V170.359H58.1439V158.775L56.8959 157.527H54.0159L50.6879 160.887V170.359H47.0719V154.423ZM65.7594 154.423H69.1194V157.335L72.0314 154.423H77.0874L80.4474 157.783V170.359H76.8314V158.775L75.5834 157.527H72.7034L69.3754 160.887V170.359H65.7594V154.423ZM84.1269 167.191V157.623L87.2949 154.423H95.9669L99.1989 157.623V163.575H87.7429V166.135L88.9589 167.351H94.4309L95.5829 166.167V165.207H99.1669V167.255L96.0629 170.359H87.2629L84.1269 167.191ZM95.5829 160.919V158.711L94.3349 157.431H88.9909L87.7429 158.711V160.919H95.5829ZM102.884 154.423H106.244V157.143L108.9 154.423H113.316V157.527H109.7L106.5 160.791V170.359H102.884V154.423ZM114.459 167.383V165.431H118.011V166.455L118.907 167.383H124.347L125.243 166.455V164.727L124.315 163.799H117.435L114.587 160.919V157.335L117.499 154.423H125.531L128.475 157.399V159.351H124.923V158.327L124.027 157.399H119.035L118.139 158.327V159.927L119.067 160.855H125.915L128.795 163.767V167.447L125.883 170.359H117.403L114.459 167.383Z" fill="white"/>
<defs>
<clipPath id="clip0_8_7084">
<rect width="96.2804" height="108.552" fill="white" transform="translate(24.7695)"/>
</clipPath>
</defs>
</svg>
